HIERARCHY
ROOT Hips
{
 OFFSET 0.000000 0.000000 0.000000
 CHANNELS 6 Xposition Yposition Zposition Yrotation Xrotation Zrotation
 JOINT Chest
 {
  OFFSET 0.000000 9.585900 0.002600
  CHANNELS 3 Yrotation Xrotation Zrotation
  JOINT Chest2
  {
   OFFSET 0.000000 9.601200 -0.005300
   CHANNELS 3 Yrotation Xrotation Zrotation
   JOINT Chest3
   {
    OFFSET 0.000000 9.561800 0.000000
    CHANNELS 3 Yrotation Xrotation Zrotation
    JOINT Chest4
    {
     OFFSET 0.000000 9.552100 0.000000
     CHANNELS 3 Yrotation Xrotation Zrotation
     JOINT Neck
     {
      OFFSET 0.000000 14.453000 0.000000
      CHANNELS 3 Yrotation Xrotation Zrotation
      JOINT Head
      {
       OFFSET 0.000000 8.936500 -0.011300
       CHANNELS 3 Yrotation Xrotation Zrotation
       End Site
       {
        OFFSET 0.000000 17.073600 -0.006000
       }
      }
     }
     JOINT RightCollar
     {
      OFFSET -2.921100 9.558500 0.000000
      CHANNELS 3 Yrotation Xrotation Zrotation
      JOINT RightShoulder
      {
       OFFSET -13.519700 0.000000 0.000000
       CHANNELS 3 Yrotation Xrotation Zrotation
       JOINT RightElbow
       {
        OFFSET 0.000000 -29.696600 0.000000
        CHANNELS 3 Yrotation Xrotation Zrotation
        JOINT RightWrist
        {
         OFFSET 0.000000 -24.004700 0.000000
         CHANNELS 3 Yrotation Xrotation Zrotation
         End Site
         {
          OFFSET 0.000000 -17.728500 0.000000
         }
        }
       }
      }
     }
     JOINT LeftCollar
     {
      OFFSET 2.921100 9.558500 0.000000
      CHANNELS 3 Yrotation Xrotation Zrotation
      JOINT LeftShoulder
      {
       OFFSET 13.519700 0.000000 0.000000
       CHANNELS 3 Yrotation Xrotation Zrotation
       JOINT LeftElbow
       {
        OFFSET 0.000000 -29.696600 0.000000
        CHANNELS 3 Yrotation Xrotation Zrotation
        JOINT LeftWrist
        {
         OFFSET 0.000000 -24.004700 0.000000
         CHANNELS 3 Yrotation Xrotation Zrotation
         End Site
         {
          OFFSET 0.000000 -17.728500 0.000000
         }
        }
       }
      }
     }
    }
   }
  }
 }
 JOINT RightHip
 {
  OFFSET -7.771700 -0.012900 -0.001300
  CHANNELS 3 Yrotation Xrotation Zrotation
  JOINT RightKnee
  {
   OFFSET 0.000000 -40.869800 0.001200
   CHANNELS 3 Yrotation Xrotation Zrotation
   JOINT RightAnkle
   {
    OFFSET 0.000000 -39.717900 0.002100
    CHANNELS 3 Yrotation Xrotation Zrotation
    JOINT RightToe
    {
     OFFSET 0.000000 -4.965400 11.033500
     CHANNELS 3 Yrotation Xrotation Zrotation
     End Site
     {
      OFFSET 0.000000 -1.423100 5.872300
     }
    }
   }
  }
 }
 JOINT LeftHip
 {
  OFFSET 7.771700 -0.012900 -0.001300
  CHANNELS 3 Yrotation Xrotation Zrotation
  JOINT LeftKnee
  {
   OFFSET 0.000000 -40.869800 0.001200
   CHANNELS 3 Yrotation Xrotation Zrotation
   JOINT LeftAnkle
   {
    OFFSET 0.000000 -39.717900 0.002100
    CHANNELS 3 Yrotation Xrotation Zrotation
    JOINT LeftToe
    {
     OFFSET 0.000000 -4.965400 11.033500
     CHANNELS 3 Yrotation Xrotation Zrotation
     End Site
     {
      OFFSET 0.000000 -1.423100 5.872300
     }
    }
   }
  }
 }
}
MOTION
Frames: 11
Frame Time: 0.008333
-42.099385 52.796654 -7.216988 -176.709647 -16.867441 -1.976683 1.066233 15.343622 0.859626 0.095577 1.436616 0.078763 0.175040 2.351086 0.097752 1.011576 13.683904 0.867581 -1.171003 16.707101 -1.107569 -0.979336 -8.183508 -0.930855 -0.929176 -1.543108 2.256423 0.488859 -5.185234 -4.803948 -103.295909 -74.108230 135.323190 -8.727322 -27.259034 -16.493006 -4.934559 -3.082144 1.634999 3.209527 -5.963203 8.394309 88.207038 -62.504045 -123.781896 1.136642 -8.031736 5.478161 1.593001 -61.652666 10.045868 175.204023 85.950336 173.006989 -13.373940 -23.454650 12.967981 0.034269 -0.031293 -0.034455 5.033221 -60.281575 -4.794768 120.660418 77.824877 118.574908 -6.591410 -19.754728 -0.633885 -0.014250 0.110797 0.015917
-42.101678 52.796103 -7.207387 -176.708955 -16.912605 -1.968918 1.075892 15.326830 0.827613 0.097111 1.435539 0.075753 0.175310 2.351339 0.092300 1.017619 13.711773 0.873826 -1.184781 16.695813 -1.162629 -0.980480 -8.140223 -0.897822 -0.895807 -1.603741 2.249733 0.576857 -5.246303 -4.892050 -102.833848 -74.062881 134.961898 -8.746168 -27.238742 -16.462280 -4.951659 -3.063526 1.641523 3.111818 -6.116746 8.422123 88.008792 -62.482878 -123.666701 1.145298 -8.106252 5.498375 1.585713 -61.611288 10.053515 175.444593 85.962608 173.259485 -13.490981 -23.428519 12.996981 0.028641 -0.020689 -0.034787 5.091208 -60.235358 -4.827196 120.623403 77.839341 118.542791 -6.605509 -19.746215 -0.615144 -0.004984 0.110588 0.015247
-42.102077 52.794907 -7.194501 -176.712922 -16.937193 -1.969571 1.091572 15.289827 0.804928 0.098312 1.434803 0.072856 0.171726 2.353152 0.087749 1.031852 13.662143 0.798724 -1.183332 16.760790 -1.129087 -0.973434 -8.094796 -0.835458 -0.873562 -1.584287 2.326347 0.666439 -5.309152 -4.980007 -102.400721 -74.014995 134.628614 -8.759790 -27.216226 -16.433493 -5.028230 -3.043946 1.593626 3.053505 -6.171082 8.578203 87.831868 -62.463540 -123.580296 1.152409 -8.175808 5.523723 1.558162 -61.594483 10.104000 175.864970 85.982981 173.705638 -13.727897 -23.378736 13.041000 -0.003946 -0.010110 -0.030259 5.192847 -60.202212 -4.868440 120.574805 77.873295 118.522178 -6.647919 -19.749423 -0.593473 0.016101 0.124541 0.025403
-42.102168 52.795636 -7.186888 -176.713011 -16.994009 -1.974462 1.101027 15.287473 0.783289 0.099310 1.434306 0.069903 0.168299 2.368855 0.095195 1.030293 13.632450 0.751176 -1.178005 16.798583 -1.114549 -0.970802 -8.069525 -0.845334 -0.851773 -1.554668 2.380551 0.776032 -5.415373 -5.083667 -102.009134 -73.968712 134.330801 -8.772483 -27.190987 -16.405974 -5.069399 -3.024227 1.559587 2.987556 -6.238488 8.668465 87.670480 -62.445985 -123.515634 1.157412 -8.237248 5.559805 1.536120 -61.533404 10.077484 175.226550 85.982249 173.017543 -13.428564 -23.388067 13.018546 0.012016 -0.031336 -0.051405 5.231675 -60.140097 -4.868840 120.526287 77.889797 118.478229 -6.666908 -19.751249 -0.573418 0.024459 0.126977 0.023317
-42.102176 52.798810 -7.186018 -176.703357 -17.091200 -1.984637 1.098358 15.327886 0.767643 0.094217 1.379188 0.039867 0.174927 2.466304 0.143006 1.016018 13.590469 0.706151 -1.173689 16.819991 -1.117855 -0.976852 -8.059692 -0.905604 -0.818632 -1.540525 2.412085 0.881090 -5.523832 -5.181330 -101.649162 -73.927852 134.058433 -8.786154 -27.163669 -16.380856 -5.096336 -3.004549 1.533081 2.919331 -6.299813 8.715063 87.521041 -62.434153 -123.462695 1.158276 -8.290825 5.605901 1.472903 -61.426200 10.101631 174.896761 85.983999 172.653726 -13.280352 -23.386371 13.010030 0.018549 -0.045160 -0.060376 5.248971 -60.037249 -4.853810 120.498092 77.905037 118.454546 -6.683544 -19.750217 -0.555793 0.029872 0.126244 0.025276
-42.102851 52.800483 -7.179163 -176.706512 -17.149274 -1.984865 1.093412 15.292242 0.723200 0.100119 1.432870 0.062926 0.173334 2.449527 0.133091 1.008890 13.592388 0.686902 -1.168032 16.841039 -1.120450 -0.970391 -8.036994 -0.909661 -0.743382 -1.624697 2.413413 0.939680 -5.537468 -5.242824 -101.322555 -73.898195 133.813453 -8.797131 -27.141114 -16.357098 -5.124681 -2.983019 1.509420 2.858326 -6.342284 8.741766 87.380632 -62.427601 -123.416901 1.155983 -8.334509 5.656598 1.423708 -61.372829 10.198562 175.919529 86.012469 173.727588 -13.690602 -23.317088 13.066938 -0.003248 -0.026918 -0.040284 5.279152 -59.976007 -4.853684 120.484149 77.918731 118.447585 -6.695132 -19.753187 -0.551300 0.040962 0.127693 0.030990
-42.104044 52.802518 -7.172308 -176.708698 -17.204350 -1.982343 1.089451 15.297059 0.696389 0.106118 1.470139 0.079834 0.167220 2.409888 0.108455 1.001050 13.592055 0.670995 -1.147497 16.877894 -1.100528 -0.966971 -8.025745 -0.911582 -0.682316 -1.668960 2.429330 1.016067 -5.586544 -5.314725 -101.045877 -73.877340 133.610685 -8.802900 -27.126448 -16.331300 -5.128811 -2.944170 1.516182 2.783447 -6.382975 8.719433 87.241099 -62.423147 -123.372382 1.154164 -8.363612 5.699600 1.408167 -61.319119 10.229478 176.476134 86.030931 174.298427 -13.788890 -23.280195 13.085113 -0.009911 -0.026760 -0.036897 5.289498 -59.919772 -4.850226 120.459762 77.923108 118.419339 -6.691946 -19.752557 -0.549078 0.036832 0.126430 0.031632
-42.102273 52.804063 -7.162505 -176.714891 -17.236704 -1.995492 1.098270 15.316573 0.706551 0.098501 1.432503 0.061435 0.158670 2.371327 0.085228 1.019872 13.653864 0.696482 -1.144197 16.887832 -1.103581 -0.963138 -8.014745 -0.913838 -0.643217 -1.718921 2.435218 1.103833 -5.648430 -5.388867 -100.822554 -73.859573 133.452686 -8.805314 -27.112904 -16.305939 -5.179325 -2.950626 1.458976 2.741185 -6.391153 8.733071 87.097720 -62.417981 -123.320936 1.153439 -8.377751 5.733265 1.368143 -61.282237 10.231321 176.200846 86.041683 173.978927 -13.435146 -23.283203 13.035502 0.003885 -0.049469 -0.052263 5.314051 -59.886006 -4.829216 120.448756 77.941435 118.415298 -6.709775 -19.756756 -0.539366 0.043306 0.131659 0.037752
-42.100586 52.807385 -7.157246 -176.713384 -17.293660 -2.012166 1.098525 15.324866 0.701543 0.097694 1.431875 0.059774 0.147630 2.357377 0.077367 1.032592 13.690645 0.706971 -1.153175 16.883037 -1.128156 -0.966343 -7.995254 -0.949755 -0.605941 -1.766809 2.443109 1.193176 -5.704532 -5.453786 -100.631737 -73.844778 133.317554 -8.808610 -27.101506 -16.282285 -5.229085 -2.946251 1.405647 2.695235 -6.393300 8.733779 86.958744 -62.410288 -123.263455 1.154731 -8.379166 5.756624 1.257679 -61.213036 10.280185 176.219468 86.050971 173.945481 -13.077892 -23.288135 12.973384 0.013300 -0.069740 -0.064456 5.324429 -59.827441 -4.800994 120.442029 77.955950 118.415126 -6.724799 -19.756606 -0.530241 0.047236 0.130709 0.042161
-42.096515 52.811345 -7.152818 -176.710815 -17.351769 -2.043833 1.075737 15.284656 0.687629 0.114466 1.480875 0.075686 0.141207 2.356449 0.078462 1.025610 13.688234 0.687067 -1.171506 16.886223 -1.159409 -0.937134 -7.947953 -0.946669 -0.551152 -1.783516 2.468074 1.280384 -5.759498 -5.509072 -100.443780 -73.834632 133.178330 -8.812528 -27.096649 -16.260819 -5.248446 -2.896326 1.385318 2.631933 -6.395542 8.707393 86.830274 -62.402508 -123.203225 1.159478 -8.377501 5.766930 1.163059 -61.146264 10.355483 176.281118 86.067353 173.989046 -12.910743 -23.272934 12.945988 0.016298 -0.079387 -0.069045 5.356687 -59.768270 -4.752793 120.489999 77.992926 118.483356 -6.777117 -19.752984 -0.507306 0.077404 0.125943 0.055245
-42.096118 52.815342 -7.147882 -176.711890 -17.404995 -2.052498 1.063745 15.289029 0.677484 0.098358 1.443059 0.060024 0.159496 2.406733 0.094608 1.002183 13.672461 0.664494 -1.165677 16.909994 -1.172319 -0.917174 -7.913919 -0.951906 -0.488431 -1.794772 2.486869 1.310135 -5.757582 -5.529906 -100.439321 -73.835969 133.274498 -8.816271 -27.093113 -16.245913 -5.233166 -2.841769 1.384455 2.541684 -6.389199 8.647772 86.710456 -62.397562 -123.142051 1.162971 -8.383866 5.774342 1.113435 -61.087485 10.384813 176.174140 86.077257 173.864388 -12.798497 -23.258614 12.933048 0.017662 -0.082885 -0.071906 5.383783 -59.712071 -4.736191 120.490051 78.009504 118.484704 -6.800681 -19.747875 -0.483283 0.082743 0.122008 0.054011
